# xmcd CD database file
#
# Track frame offsets:
#	150
#	17392
#	34319
#	61950
#	81300
#	100437
#	112500
#	117810
#	144235
#	165364
#	180403
#
# Disc length: 2623 seconds
#
# Revision: 1
# Processed by: cddbd v1.5.1PL2 Copyright (c) Steve Scherf et al.
# Submitted via: CDex 1.51
#
DISCID=7a0a3d0b
DTITLE=Didier Conchon - FreeWay
DYEAR=2003
DGENRE=Jazz
TTITLE0=Up And Down
TTITLE1=Calypsong
TTITLE2=Sud
TTITLE3=Salsa Dreams
TTITLE4=Wandering
TTITLE5=Freeway
TTITLE6=Hol Swing
TTITLE7=Along Came Betty
TTITLE8=Song For Ingrid
TTITLE9=Cheeps Valse
TTITLE10=Andres
EXTD=YEAR: 2003
EXTT0=
EXTT1=
EXTT2=
EXTT3=
EXTT4=
EXTT5=
EXTT6=
EXTT7=
EXTT8=
EXTT9=
EXTT10=
PLAYORDER=
